#usda 1.0
(
    customLayerData = {
        string purpose = "Baked four-FMU kinematic pose replay for Isaac Sim timeline playback"
        string safety = "Offline animation; no physical robot motion"
        string source = "results/drive/trajectory.csv"
    }
    endTimeCode = 789
    framesPerSecond = 100
    startTimeCode = 0
    timeCodesPerSecond = 100
)

over "World"
{
    over "jetauto"
    {
        custom quatd xformOp:orient
        quatd xformOp:orient.timeSamples = {
            0: (1, 0, 0, 0),
            1: (1, 0, 0, 0),
            2: (1, 0, 0, 0),
            3: (1, 0, 0, 0),
            4: (1, 0, 0, 0),
            5: (1, 0, 0, 0),
            6: (1, 0, 0, 0),
            7: (1, 0, 0, 0),
            8: (1, 0, 0, 0),
            9: (1, 0, 0, 0),
            10: (1, 0, 0, 0),
            11: (1, 0, 0, 0),
            12: (1, 0, 0, 0),
            13: (1, 0, 0, 0),
            14: (1, 0, 0, 0),
            15: (1, 0, 0, 0),
            16: (1, 0, 0, 0),
            17: (1, 0, 0, 0),
            18: (1, 0, 0, 0),
            19: (1, 0, 0, 0),
            20: (1, 0, 0, 0),
            21: (0.9999999860054858, 0, 0, -0.00016729921755420093),
            22: (0.9999997819219735, 0, 0, -0.000660421082036103),
            23: (0.9999989245568186, 0, 0, -0.00146658965160953),
            24: (0.9999966884697457, 0, 0, -0.00257352861697652),
            25: (0.9999921217378158, 0, 0, -0.003969441056534781),
            26: (0.9999840782091054, 0, 0, -0.005642989304066797),
            27: (0.9999712465544243, 0, 0, -0.007583275307602777),
            28: (0.9999521763962477, 0, 0, -0.009779822105111762),
            29: (0.9999253017780159, 0, 0, -0.01222255554881329),
            30: (0.9998889622253918, 0, 0, -0.014901785793285816),
            31: (0.9998414215706014, 0, 0, -0.017808192263079906),
            32: (0.99978088478722, 0, 0, -0.02093280712382889),
            33: (0.9997055130603569, 0, 0, -0.024266997274662402),
            34: (0.9996134370653715, 0, 0, -0.02780245381894486),
            35: (0.9995027688714759, 0, 0, -0.03153117533890759),
            36: (0.9993716125185764, 0, 0, -0.03544545234611037),
            37: (0.9992180728480228, 0, 0, -0.039537866582345524),
            38: (0.9990402644983248, 0, 0, -0.0438012546751484),
            39: (0.9988363182928818, 0, 0, -0.048228718199024925),
            40: (0.9986043871727545, 0, 0, -0.052813614904941936),
            41: (0.998342653180514, 0, 0, -0.05754951642274615),
            42: (0.9980493296372664, 0, 0, -0.06243024595981619),
            43: (0.9977226678111718, 0, 0, -0.06744981939010755),
            44: (0.9973609577559874, 0, 0, -0.07260247891125708),
            45: (0.9969625332240408, 0, 0, -0.07788265113299142),
            46: (0.9965257722517781, 0, 0, -0.08328496405712976),
            47: (0.9960491002624335, 0, 0, -0.08880422212032832),
            48: (0.995530990979521, 0, 0, -0.09443540649212426),
            49: (0.9949699684481228, 0, 0, -0.10017365864508294),
            50: (0.9943646064203698, 0, 0, -0.10601428912398057),
            51: (0.9937135288337745, 0, 0, -0.11195276956255835),
            52: (0.9930154130973358, 0, 0, -0.1179846996484184),
            53: (0.9922689847696352, 0, 0, -0.12410584943602548),
            54: (0.991473024563407, 0, 0, -0.13031209292728654),
            55: (0.9906263625343935, 0, 0, -0.13659945040839813),
            56: (0.9897278775851499, 0, 0, -0.14296408056149834),
            57: (0.9887764982200545, 0, 0, -0.14940226426559436),
            58: (0.9877712075931542, 0, 0, -0.1559103635104537),
            59: (0.9867110348970439, 0, 0, -0.1624848719493746),
            60: (0.9855950516469744, 0, 0, -0.16912242361377752),
            61: (0.9844223836643506, 0, 0, -0.17581971033020746),
            62: (0.9831921985583904, 0, 0, -0.18257354872466777),
            63: (0.9819037094369388, 0, 0, -0.18938084748458495),
            64: (0.9805561731921336, 0, 0, -0.19623860785991745),
            65: (0.9791488954651811, 0, 0, -0.203143891144469),
            66: (0.9776812120929433, 0, 0, -0.21009390167368772),
            67: (0.9761525107723134, 0, 0, -0.2170858717487361),
            68: (0.9745622046869885, 0, 0, -0.22411717737745196),
            69: (0.9729097633439368, 0, 0, -0.23118519068064225),
            70: (0.9711946814975126, 0, 0, -0.23828741181805008),
            71: (0.9694164918455297, 0, 0, -0.24542140358555947),
            72: (0.967574759229429, 0, 0, -0.25258480813800416),
            73: (0.9656690915253344, 0, 0, -0.259775298426612),
            74: (0.96369912116161, 0, 0, -0.26699064379176385),
            75: (0.9616645159799007, 0, 0, -0.274228661348779),
            76: (0.9595649779949892, 0, 0, -0.28148721641572977),
            77: (0.9574002226431777, 0, 0, -0.2887642874089416),
            78: (0.9551700098763235, 0, 0, -0.2960578528478244),
            79: (0.9528741292665576, 0, 0, -0.3033659403665807),
            80: (0.950512393321144, 0, 0, -0.3106866430069223),
            81: (0.9480846246563959, 0, 0, -0.31801815119602994),
            82: (0.9455906854824999, 0, 0, -0.32535865676009906),
            83: (0.9430304778800574, 0, 0, -0.3327063536954329),
            84: (0.9404038867755087, 0, 0, -0.340059597331874),
            85: (0.9377108558825086, 0, 0, -0.34741668175275225),
            86: (0.9349513425676663, 0, 0, -0.3547759673807095),
            87: (0.9321253033387394, 0, 0, -0.36213591215959634),
            88: (0.9292327400517998, 0, 0, -0.3694949455890084),
            89: (0.9262736504952706, 0, 0, -0.37685159466050483),
            90: (0.9232480765403873, 0, 0, -0.3842043585964051),
            91: (0.9201560658952652, 0, 0, -0.39155180295351527),
            92: (0.9169976831319804, 0, 0, -0.3988925282962568),
            93: (0.9137730085014949, 0, 0, -0.4062251702370583),
            94: (0.9104821367362251, 0, 0, -0.4135483994458663),
            95: (0.9071251758418319, 0, 0, -0.420860921628423),
            96: (0.9037022603019718, 0, 0, -0.4281614470326669),
            97: (0.9002135217450975, 0, 0, -0.43544875159688873),
            98: (0.8966591163085406, 0, 0, -0.44272161584994585),
            99: (0.8930392246240897, 0, 0, -0.44997882537159967),
            100: (0.8893540209896875, 0, 0, -0.4572192311675816),
            101: (0.8856037021869441, 0, 0, -0.4644416892062753),
            102: (0.8817884556701151, 0, 0, -0.4716451202407521),
            103: (0.8779085054856013, 0, 0, -0.4788284202050228),
            104: (0.873964080694478, 0, 0, -0.4859905201296174),
            105: (0.8699554307208551, 0, 0, -0.493130356558275),
            106: (0.865882791589809, 0, 0, -0.5002469302540891),
            107: (0.8617464176467298, 0, 0, -0.5073392471246709),
            108: (0.8575465641682198, 0, 0, -0.5144063474368112),
            109: (0.8532835388004459, 0, 0, -0.5214472192007431),
            110: (0.8489575970501496, 0, 0, -0.5284609715114597),
            111: (0.844569063737674, 0, 0, -0.5354466328003834),
            112: (0.8401181902875738, 0, 0, -0.5424033797349826),
            113: (0.8356972483099352, 0, 0, -0.5491904124866006),
            114: (0.8313979875553549, 0, 0, -0.5556774120736833),
            115: (0.8272198465442687, 0, 0, -0.5618783902974704),
            116: (0.8231620029910629, 0, 0, -0.5678065839982321),
            117: (0.8192231985310467, 0, 0, -0.5734748041444899),
            118: (0.8154021309034104, 0, 0, -0.5788949515397225),
            119: (0.8116970753875785, 0, 0, -0.5840786400881749),
            120: (0.8081062336047141, 0, 0, -0.5890367689789858),
            121: (0.804627695833214, 0, 0, -0.593779648605552),
            122: (0.8012593156502781, 0, 0, -0.5983172311438539),
            123: (0.7979989402113927, 0, 0, -0.6026588516080171),
            124: (0.7948441974556041, 0, 0, -0.6068135642610147),
            125: (0.7917928059950864, 0, 0, -0.6107897775621556),
            126: (0.7888423147489219, 0, 0, -0.6145956414274046),
            127: (0.785990287967579, 0, 0, -0.618238843183314),
            128: (0.7832342434323977, 0, 0, -0.6217267244657251),
            129: (0.7805716704788291, 0, 0, -0.6250662902811911),
            130: (0.7780000890575489, 0, 0, -0.6282641653209626),
            131: (0.7755170237681002, 0, 0, -0.631326655421635),
            132: (0.7731199327239908, 0, 0, -0.6342598596985718),
            133: (0.7708063906145403, 0, 0, -0.6370694688868591),
            134: (0.7685739305905652, 0, 0, -0.6397609813176863),
            135: (0.7664201837456833, 0, 0, -0.642339553466259),
            136: (0.7643427168913824, 0, 0, -0.6448102132682919),
            137: (0.7623392143949624, 0, 0, -0.6471776589126602),
            138: (0.7604074007366114, 0, 0, -0.6494463679973816),
            139: (0.7585449166122225, 0, 0, -0.651620755870895),
            140: (0.7567496323408368, 0, 0, -0.6537048217292024),
            141: (0.7550193482386515, 0, 0, -0.6557025116508872),
            142: (0.75335193176402, 0, 0, -0.6576175688859136),
            143: (0.7517453234023285, 0, 0, -0.6594535379711967),
            144: (0.7501974975745336, 0, 0, -0.6612138191484717),
            145: (0.7487064671194786, 0, 0, -0.6629016715120495),
            146: (0.7472703322387813, 0, 0, -0.6645201656501791),
            147: (0.7458872400389819, 0, 0, -0.6660722371837985),
            148: (0.7445552981671537, 0, 0, -0.6675607897197235),
            149: (0.7432728025236657, 0, 0, -0.6689884461099579),
            150: (0.7420380160209057, 0, 0, -0.6703578020577953),
            151: (0.740849306287429, 0, 0, -0.6716712777642314),
            152: (0.7397049674693027, 0, 0, -0.6729313197505654),
            153: (0.7386034939869578, 0, 0, -0.6741401031464141),
            154: (0.7375433566453804, 0, 0, -0.6752997831098906),
            155: (0.7365230495899371, 0, 0, -0.6764124462358296),
            156: (0.7355411832702304, 0, 0, -0.6774800127778157),
            157: (0.7345963952877276, 0, 0, -0.6785043375176586),
            158: (0.7336872602646578, 0, 0, -0.679487309760337),
            159: (0.7328125655744943, 0, 0, -0.6804305576149028),
            160: (0.7319709925559181, 0, 0, -0.6813357953731068),
            161: (0.7311613925009958, 0, 0, -0.6822045280676498),
            162: (0.7303825585351157, 0, 0, -0.6830382992100065),
            163: (0.7296333642555208, 0, 0, -0.6838385436381679),
            164: (0.7289127188201181, 0, 0, -0.6846066376703219),
            165: (0.7282195678139235, 0, 0, -0.6853438998436496),
            166: (0.7275528940574817, 0, 0, -0.6860515916085195),
            167: (0.7269117183607056, 0, 0, -0.6867309179801695),
            168: (0.7262951002254169, 0, 0, -0.6873830281499186),
            169: (0.7257020921498568, 0, 0, -0.6880090649470548),
            170: (0.7251317864256844, 0, 0, -0.6886101163322359),
            171: (0.7245834550084305, 0, 0, -0.6891870694724661),
            172: (0.7240561324203332, 0, 0, -0.689741050760725),
            173: (0.7235491266598537, 0, 0, -0.6902728890154697),
            174: (0.7230616017427886, 0, 0, -0.6907835551641),
            175: (0.7225928568663412, 0, 0, -0.6912738698994338),
            176: (0.7221421873510616, 0, 0, -0.6917446503210735),
            177: (0.7217088848609405, 0, 0, -0.6921967101285427),
            178: (0.7212923309365328, 0, 0, -0.6926307626233066),
            179: (0.7208918574094186, 0, 0, -0.6930475668529531),
            180: (0.7205068398699547, 0, 0, -0.6934478305544055),
            181: (0.7201367447125645, 0, 0, -0.6938321619201511),
            182: (0.7197809424719265, 0, 0, -0.6942012639387984),
            183: (0.7194388948765855, 0, 0, -0.694555740411637),
            184: (0.7191101552209159, 0, 0, -0.694896096303721),
            185: (0.7187940876881507, 0, 0, -0.6952230286063308),
            186: (0.7184903355924636, 0, 0, -0.6955369419809627),
            187: (0.7181983064633163, 0, 0, -0.6958384816846683),
            188: (0.7179176405964285, 0, 0, -0.6961280495142091),
            189: (0.7176478832204701, 0, 0, -0.6964061427853566),
            190: (0.7173885782487901, 0, 0, -0.696673257559223),
            191: (0.7171393622576462, 0, 0, -0.6969297920886268),
            192: (0.7168998238231553, 0, 0, -0.6971761919359617),
            193: (0.716669550481654, 0, 0, -0.6974129016676017),
            194: (0.7164483167851764, 0, 0, -0.6976401718476993),
            195: (0.716235614519901, 0, 0, -0.6978585418931976),
            196: (0.7160312636720759, 0, 0, -0.6980682126011541),
            197: (0.7158348014338308, 0, 0, -0.6982696735905033),
            198: (0.7156460464853682, 0, 0, -0.6984631244023282),
            199: (0.7154645816919909, 0, 0, -0.6986490051122269),
            200: (0.7152902246118608, 0, 0, -0.6988275141797965),
            201: (0.7151226511082355, 0, 0, -0.6989989941852054),
            202: (0.7149616307095226, 0, 0, -0.6991636908572844),
            203: (0.714806885412584, 0, 0, -0.6993218976742834),
            204: (0.7146581367763983, 0, 0, -0.6994739076901202),
            205: (0.7145152473440096, 0, 0, -0.6996198691524768),
            206: (0.7143778908184968, 0, 0, -0.6997601225489459),
            207: (0.7142458819477414, 0, 0, -0.6998948636193103),
            208: (0.7141190823630462, 0, 0, -0.7000242397267118),
            209: (0.7139971647974317, 0, 0, -0.7001485904157982),
            210: (0.7138800375169132, 0, 0, -0.7002680144307968),
            211: (0.7137675142529688, 0, 0, -0.7003827065234678),
            212: (0.7136593613259024, 0, 0, -0.7004929093087989),
            213: (0.7135554392156973, 0, 0, -0.7005987690295304),
            214: (0.7134555610308484, 0, 0, -0.7007004798301179),
            215: (0.7133595869069794, 0, 0, -0.7007981876174507),
            216: (0.7132673768316993, 0, 0, -0.7008920381539704),
            217: (0.7131787434287721, 0, 0, -0.7009822251108495),
            218: (0.7130935936255841, 0, 0, -0.7010688459275239),
            219: (0.7130117870131122, 0, 0, -0.7011520459788791),
            220: (0.712933183064432, 0, 0, -0.7012319705244601),
            221: (0.7128575938956941, 0, 0, -0.7013088127388972),
            222: (0.7127850205017079, 0, 0, -0.7013825735990166),
            223: (0.7127152748151006, 0, 0, -0.7014534460997648),
            224: (0.71264826317569, 0, 0, -0.7015215271056708),
            225: (0.7125838445884809, 0, 0, -0.7015869614178272),
            226: (0.7125219725125793, 0, 0, -0.7016497977529695),
            227: (0.71246250581568, 0, 0, -0.7017101807775359),
            228: (0.7124053505670699, 0, 0, -0.7017682070907817),
            229: (0.7123504600612505, 0, 0, -0.7018239252480104),
            230: (0.7122976929867084, 0, 0, -0.7018774797397427),
            231: (0.7122470025432118, 0, 0, -0.7019289190282801),
            232: (0.7121983418975353, 0, 0, -0.7019782915435501),
            233: (0.7121515223025296, 0, 0, -0.7020257896133087),
            234: (0.7121065441327862, 0, 0, -0.7020714136063796),
            235: (0.7120633604479587, 0, 0, -0.7021152118474292),
            236: (0.7120218296756493, 0, 0, -0.7021573285705567),
            237: (0.7119819521139225, 0, 0, -0.7021977640693883),
            238: (0.7119436334322939, 0, 0, -0.7022366145504116),
            239: (0.7119068265791542, 0, 0, -0.702273928228863),
            240: (0.7118714371694238, 0, 0, -0.7023098012574928),
            241: (0.7118374181051212, 0, 0, -0.7023442818058924),
            242: (0.7118047695884177, 0, 0, -0.7023773700733671),
            243: (0.7117733971734268, 0, 0, -0.7024091621528006),
            244: (0.7117432063896851, 0, 0, -0.7024397541128563),
            245: (0.7117142447158042, 0, 0, -0.7024690981592089),
            246: (0.7116864176542661, 0, 0, -0.7024972903338756),
            247: (0.711659678014153, 0, 0, -0.7025243787149256),
            248: (0.7116339312624955, 0, 0, -0.7025504593094263),
            249: (0.7116092721723234, 0, 0, -0.7025754363471414),
            250: (0.7115855115287162, 0, 0, -0.7025995016952513),
            251: (0.7115627440927645, 0, 0, -0.7026225595717625),
            252: (0.7115408279549134, 0, 0, -0.702644753878684),
            253: (0.7115197631959242, 0, 0, -0.7026660846957222),
            254: (0.711499549893415, 0, 0, -0.7026865520994889),
            255: (0.7114801407819035, 0, 0, -0.7027062040945439),
            256: (0.7114614412464633, 0, 0, -0.702725136607127),
            257: (0.7114435460294178, 0, 0, -0.7027432538367676),
            258: (0.7114263131621513, 0, 0, -0.7027606996271979),
            259: (0.711409742694036, 0, 0, -0.7027774740271671),
            260: (0.7113938346725437, 0, 0, -0.7027935770835514),
            261: (0.7113785417963598, 0, 0, -0.7028090567655518),
            262: (0.7113638641061624, 0, 0, -0.7028239131133411),
            263: (0.7113497306177163, 0, 0, -0.7028382180488639),
            264: (0.7113361887140518, 0, 0, -0.7028519236836213),
            265: (0.7113231674038075, 0, 0, -0.7028651019325222),
            266: (0.7113106430405273, 0, 0, -0.7028777767843223),
            267: (0.7112986156511122, 0, 0, -0.7028899482655954),
            268: (0.711287061584833, 0, 0, -0.7029016403608787),
            269: (0.7112759571883827, 0, 0, -0.7029128770521635),
            270: (0.7112653024833384, 0, 0, -0.7029236583607676),
            271: (0.7112550501350975, 0, 0, -0.7029340322230245),
            272: (0.7112452001614833, 0, 0, -0.7029439986565441),
            273: (0.7112357289013075, 0, 0, -0.7029535816355343),
            274: (0.7112266363700659, 0, 0, -0.7029627811753066),
            275: (0.7112179225826342, 0, 0, -0.7029715972905607),
            276: (0.7112095401948608, 0, 0, -0.7029800779081969),
            277: (0.7112014655392657, 0, 0, -0.7029882469962073),
            278: (0.7111937223063252, 0, 0, -0.7029960806093257),
            279: (0.7111862631471291, 0, 0, -0.7030036266697508),
            280: (0.7111791117510705, 0, 0, -0.7030108612311465),
            281: (0.7111722444471793, 0, 0, -0.7030178082580565),
            282: (0.71116566124388, 0, 0, -0.7030244677588077),
            283: (0.7111593147874191, 0, 0, -0.703030887650812),
            284: (0.7111532050842841, 0, 0, -0.7030370679404822),
            285: (0.7111473558220448, 0, 0, -0.7030429846796808),
            286: (0.7111417314850068, 0, 0, -0.7030486738060933),
            287: (0.7111363439194813, 0, 0, -0.7030541233481482),
            288: (0.7111311339262882, 0, 0, -0.703059393195704),
            289: (0.7111261251914688, 0, 0, -0.7030644593991132),
            290: (0.7111213650837942, 0, 0, -0.7030692740558082),
            291: (0.7111167233553669, 0, 0, -0.703073968913888),
            292: (0.711112330262413, 0, 0, -0.7030784122334868),
            293: (0.711108079237679, 0, 0, -0.703082711807721),
            294: (0.7111039821251725, 0, 0, -0.7030868556627426),
            295: (0.7111000685312839, 0, 0, -0.7030908138603457),
            296: (0.7110962970137547, 0, 0, -0.7030946283206307),
            297: (0.7110926498125074, 0, 0, -0.7030983170102363),
            298: (0.711089197979417, 0, 0, -0.7031018080740438),
            299: (0.7110858290211606, 0, 0, -0.703105215288074),
            300: (0.7110826080686514, 0, 0, -0.7031084727851632),
            301: (0.7110795440053098, 0, 0, -0.7031115715853358),
            302: (0.7110765657820088, 0, 0, -0.7031145835464263),
            303: (0.7110737237279964, 0, 0, -0.7031174577718868),
            304: (0.7110709808388102, 0, 0, -0.7031202316879613),
            305: (0.7110683559888237, 0, 0, -0.7031228862093393),
            306: (0.7110658195742483, 0, 0, -0.7031254512767993),
            307: (0.7110633841782746, 0, 0, -0.7031279141670734),
            308: (0.7110610527624975, 0, 0, -0.7031302718872859),
            309: (0.7110588116354541, 0, 0, -0.7031325382853333),
            310: (0.7110566711599484, 0, 0, -0.7031347028834041),
            311: (0.7110545721257019, 0, 0, -0.7031368255603847),
            312: (0.7110526122318697, 0, 0, -0.703138807518284),
            313: (0.711050670095976, 0, 0, -0.7031407715074297),
            314: (0.7110488641415734, 0, 0, -0.7031425977730109),
            315: (0.7110470877884048, 0, 0, -0.7031443940952873),
            316: (0.7110454120910894, 0, 0, -0.7031460886218545),
            317: (0.7110437659958018, 0, 0, -0.7031477532059015),
            318: (0.7110422264786969, 0, 0, -0.7031493100076381),
            319: (0.7110407106431402, 0, 0, -0.7031508428552853),
            320: (0.7110392540167966, 0, 0, -0.7031523158229925),
            321: (0.7110378566000382, 0, 0, -0.7031537289111276),
            322: (0.7110365539208698, 0, 0, -0.7031550461941761),
            323: (0.7110352393966898, 0, 0, -0.7031563754500788),
            324: (0.7110340314533603, 0, 0, -0.7031575969263091),
            325: (0.7110328471931572, 0, 0, -0.7031587944500106),
            326: (0.7110317339867274, 0, 0, -0.7031599201204715),
            327: (0.7110306207785153, 0, 0, -0.7031610457891699),
            328: (0.7110296023098667, 0, 0, -0.7031620756547332),
            329: (0.7110285127836143, 0, 0, -0.7031631773697493),
            330: (0.711027589053498, 0, 0, -0.7031641114311579),
            331: (0.7110267126930226, 0, 0, -0.7031649975908597),
            332: (0.7110257179041176, 0, 0, -0.703166003500549),
            333: (0.7110248652267808, 0, 0, -0.7031668657077339),
            334: (0.7110241309760139, 0, 0, -0.7031676081630924),
            335: (0.7110232782967311, 0, 0, -0.703168470368353),
            336: (0.7110225677298634, 0, 0, -0.7031691888719469),
            337: (0.7110217861054704, 0, 0, -0.703169979225071),
            338: (0.7110210518514524, 0, 0, -0.7031707216772142),
            339: (0.7110204360249041, 0, 0, -0.7031713443784205),
            340: (0.7110197491408029, 0, 0, -0.7031720389291298),
            341: (0.7110192043701713, 0, 0, -0.7031725897792154),
            342: (0.7110185174848536, 0, 0, -0.7031732843287215),
            343: (0.7110179963989876, 0, 0, -0.7031738112278992),
            344: (0.7110174753127311, 0, 0, -0.7031743381266908),
            345: (0.7110169068545514, 0, 0, -0.7031749129249323),
            346: (0.7110163383959072, 0, 0, -0.7031754877227141),
            347: (0.7110158646800152, 0, 0, -0.7031759667205146),
            348: (0.7110154383354366, 0, 0, -0.7031763978182622),
            349: (0.7110150119905966, 0, 0, -0.7031768289157513),
            350: (0.7110145382738011, 0, 0, -0.7031773079126583),
            351: (0.7110141593001325, 0, 0, -0.7031776911099541),
            352: (0.7110136855827561, 0, 0, -0.7031781701062866),
            353: (0.7110133066086227, 0, 0, -0.7031785533031227),
            354: (0.7110130223778872, 0, 0, -0.7031788407006159),
            355: (0.7110126434033924, 0, 0, -0.7031792238970946),
            356: (0.711012264428691, 0, 0, -0.7031796070933692),
            357: (0.711011932825658, 0, 0, -0.7031799423899419),
            358: (0.711011648594361, 0, 0, -0.7031802297868797),
            359: (0.7110113169910343, 0, 0, -0.703180565083162),
            360: (0.7110109853875495, 0, 0, -0.7031809003792878),
            361: (0.7110107011558653, 0, 0, -0.7031811877758427),
            362: (0.7110104642960396, 0, 0, -0.7031814272728839),
            363: (0.7110102274361334, 0, 0, -0.7031816667698454),
            364: (0.7110099905761464, 0, 0, -0.703181906266727),
            365: (0.7110097537160788, 0, 0, -0.703182145763529),
            366: (0.7110094694838912, 0, 0, -0.7031824331595861),
            367: (0.7110092799957015, 0, 0, -0.7031826247568935),
            368: (0.7110090905074603, 0, 0, -0.7031828163541499),
            369: (0.7110088062750016, 0, 0, -0.7031831037499389),
            370: (0.7110087115308229, 0, 0, -0.7031831995485096),
            371: (0.7110084746703196, 0, 0, -0.7031834390448807),
            372: (0.711008285181859, 0, 0, -0.7031836306419201),
            373: (0.7110081904376092, 0, 0, -0.7031837264404207),
            374: (0.7110080009490711, 0, 0, -0.7031839180373836),
            375: (0.7110077640883259, 0, 0, -0.7031841575335153),
            376: (0.7110076693440052, 0, 0, -0.7031842533319457),
            377: (0.7110074324831469, 0, 0, -0.7031844928279657),
            378: (0.711007337738781, 0, 0, -0.7031845886263514),
            379: (0.7110072429944022, 0, 0, -0.7031846844247243),
            380: (0.7110070535056059, 0, 0, -0.7031848760214318),
            381: (0.7110069587611885, 0, 0, -0.7031849718197665),
            382: (0.711006864016758, 0, 0, -0.7031850676180883),
            383: (0.7110066745278585, 0, 0, -0.7031852592146937),
            384: (0.7110065797833893, 0, 0, -0.7031853550129773),
            385: (0.7110064850389072, 0, 0, -0.7031854508112481),
            386: (0.7110063902944123, 0, 0, -0.7031855466095062),
            387: (0.7110062955499044, 0, 0, -0.7031856424077514),
            388: (0.7110062008053836, 0, 0, -0.703185738205984),
            389: (0.7110061060608499, 0, 0, -0.7031858340042036),
            390: (0.7110060113163033, 0, 0, -0.7031859298024107),
            391: (0.7110059165717437, 0, 0, -0.703186025600605),
            392: (0.7110059165717437, 0, 0, -0.703186025600605),
            393: (0.7110057270825861, 0, 0, -0.703186217196955),
            394: (0.7110057270825861, 0, 0, -0.703186217196955),
            395: (0.7110056323379879, 0, 0, -0.7031863129951109),
            396: (0.7110055375933767, 0, 0, -0.703186408793254),
            397: (0.7110055375933767, 0, 0, -0.703186408793254),
            398: (0.7110055375933767, 0, 0, -0.703186408793254),
            399: (0.7110054428487527, 0, 0, -0.7031865045913844),
            400: (0.7110053481041156, 0, 0, -0.7031866003895021),
            401: (0.7110051586148032, 0, 0, -0.7031867919856989),
            402: (0.711005253359466, 0, 0, -0.7031866961876069),
            403: (0.7110050638701275, 0, 0, -0.7031868877837782),
            404: (0.7110051586148032, 0, 0, -0.7031867919856989),
            405: (0.7110051586148032, 0, 0, -0.7031867919856989),
            406: (0.711004969125439, 0, 0, -0.7031869835818447),
            407: (0.711004969125439, 0, 0, -0.7031869835818447),
            408: (0.711004969125439, 0, 0, -0.7031869835818447),
            409: (0.711004969125439, 0, 0, -0.7031869835818447),
            410: (0.7110047796360232, 0, 0, -0.7031871751779394),
            411: (0.7110047796360232, 0, 0, -0.7031871751779394),
            412: (0.7110047796360232, 0, 0, -0.7031871751779394),
            413: (0.7110047796360232, 0, 0, -0.7031871751779394),
            414: (0.7110046848912959, 0, 0, -0.7031872709759677),
            415: (0.7110047796360232, 0, 0, -0.7031871751779394),
            416: (0.7110046848912959, 0, 0, -0.7031872709759677),
            417: (0.7110045901465557, 0, 0, -0.7031873667739832),
            418: (0.7110045901465557, 0, 0, -0.7031873667739832),
            419: (0.7110044954018025, 0, 0, -0.7031874625719859),
            420: (0.7110044954018025, 0, 0, -0.7031874625719859),
            421: (0.7110045901465557, 0, 0, -0.7031873667739832),
            422: (0.7110044954018025, 0, 0, -0.7031874625719859),
            423: (0.7110044954018025, 0, 0, -0.7031874625719859),
            424: (0.7110044006570365, 0, 0, -0.7031875583699759),
            425: (0.7110043059122576, 0, 0, -0.7031876541679531),
            426: (0.7110044954018024, 0, 0, -0.703187462571986),
            427: (0.7110043059122576, 0, 0, -0.7031876541679531),
            428: (0.7110044006570365, 0, 0, -0.7031875583699759),
            429: (0.7110044006570365, 0, 0, -0.7031875583699759),
            430: (0.7110042111674658, 0, 0, -0.7031877499659175),
            431: (0.7110042111674658, 0, 0, -0.7031877499659175),
            432: (0.7110042111674658, 0, 0, -0.7031877499659175),
            433: (0.7110042111674658, 0, 0, -0.7031877499659175),
            434: (0.7110043059122576, 0, 0, -0.703187654167953),
            435: (0.7110041164226611, 0, 0, -0.7031878457638691),
            436: (0.7110043059122576, 0, 0, -0.703187654167953),
            437: (0.7110043059122576, 0, 0, -0.703187654167953),
            438: (0.7110041164226611, 0, 0, -0.7031878457638691),
            439: (0.7110042111674659, 0, 0, -0.7031877499659174),
            440: (0.7110041164226611, 0, 0, -0.7031878457638691),
            441: (0.7110041164226611, 0, 0, -0.7031878457638691),
            442: (0.7110042111674659, 0, 0, -0.7031877499659174),
            443: (0.7110041164226611, 0, 0, -0.7031878457638691),
            444: (0.7110042111674659, 0, 0, -0.7031877499659174),
            445: (0.7110042111674659, 0, 0, -0.7031877499659174),
            446: (0.7110040216778436, 0, 0, -0.703187941561808),
            447: (0.7110042111674659, 0, 0, -0.7031877499659174),
            448: (0.7110042111674659, 0, 0, -0.7031877499659174),
            449: (0.7110040216778436, 0, 0, -0.703187941561808),
            450: (0.7110042111674659, 0, 0, -0.7031877499659174),
            451: (0.7110042111674659, 0, 0, -0.7031877499659174),
            452: (0.7110040216778436, 0, 0, -0.703187941561808),
            453: (0.7110040216778436, 0, 0, -0.703187941561808),
            454: (0.7110040216778436, 0, 0, -0.703187941561808),
            455: (0.7110040216778436, 0, 0, -0.703187941561808),
            456: (0.7110040216778436, 0, 0, -0.703187941561808),
            457: (0.7110040216778436, 0, 0, -0.703187941561808),
            458: (0.7110040216778436, 0, 0, -0.703187941561808),
            459: (0.7110040216778436, 0, 0, -0.703187941561808),
            460: (0.7110040216778436, 0, 0, -0.703187941561808),
            461: (0.7110040216778436, 0, 0, -0.703187941561808),
            462: (0.7110040216778436, 0, 0, -0.703187941561808),
            463: (0.7110040216778436, 0, 0, -0.703187941561808),
            464: (0.7110040216778436, 0, 0, -0.703187941561808),
            465: (0.7110040216778436, 0, 0, -0.703187941561808),
            466: (0.7110040216778436, 0, 0, -0.703187941561808),
            467: (0.7110040216778436, 0, 0, -0.703187941561808),
            468: (0.7110040216778436, 0, 0, -0.703187941561808),
            469: (0.7110040216778436, 0, 0, -0.703187941561808),
            470: (0.7110040216778436, 0, 0, -0.703187941561808),
            471: (0.7110040216778436, 0, 0, -0.703187941561808),
            472: (0.7110040216778436, 0, 0, -0.703187941561808),
            473: (0.7110038321881695, 0, 0, -0.7031881331576474),
            474: (0.7110040216778436, 0, 0, -0.703187941561808),
            475: (0.7110038321881695, 0, 0, -0.7031881331576474),
            476: (0.7110040216778436, 0, 0, -0.703187941561808),
            477: (0.7110038321881695, 0, 0, -0.7031881331576474),
            478: (0.7110038321881695, 0, 0, -0.7031881331576474),
            479: (0.7110038321881695, 0, 0, -0.7031881331576474),
            480: (0.7110038321881695, 0, 0, -0.7031881331576474),
            481: (0.7110040216778436, 0, 0, -0.703187941561808),
            482: (0.7110040216778436, 0, 0, -0.703187941561808),
            483: (0.7110040216778436, 0, 0, -0.703187941561808),
            484: (0.7110038321881695, 0, 0, -0.7031881331576474),
            485: (0.7110038321881695, 0, 0, -0.7031881331576474),
            486: (0.7110040216778436, 0, 0, -0.703187941561808),
            487: (0.7110038321881695, 0, 0, -0.7031881331576474),
            488: (0.7110038321881695, 0, 0, -0.7031881331576474),
            489: (0.7110040216778436, 0, 0, -0.703187941561808),
            490: (0.7110038321881695, 0, 0, -0.7031881331576474),
            491: (0.7110040216778436, 0, 0, -0.703187941561808),
            492: (0.7110038321881695, 0, 0, -0.7031881331576474),
            493: (0.7110038321881695, 0, 0, -0.7031881331576474),
            494: (0.7110040216778436, 0, 0, -0.703187941561808),
            495: (0.7110040216778436, 0, 0, -0.703187941561808),
            496: (0.7110040216778436, 0, 0, -0.703187941561808),
            497: (0.7110038321881695, 0, 0, -0.7031881331576474),
            498: (0.7110038321881695, 0, 0, -0.7031881331576474),
            499: (0.7110038321881695, 0, 0, -0.7031881331576474),
            500: (0.7110040216778436, 0, 0, -0.703187941561808),
            501: (0.7110038321881695, 0, 0, -0.7031881331576474),
            502: (0.7110038321881695, 0, 0, -0.7031881331576474),
            503: (0.7110038321881695, 0, 0, -0.7031881331576474),
            504: (0.7110038321881695, 0, 0, -0.7031881331576474),
            505: (0.7110040216778436, 0, 0, -0.703187941561808),
            506: (0.7110040216778436, 0, 0, -0.703187941561808),
            507: (0.7110040216778436, 0, 0, -0.703187941561808),
            508: (0.7110040216778436, 0, 0, -0.703187941561808),
            509: (0.7110038321881695, 0, 0, -0.7031881331576474),
            510: (0.7110038321881695, 0, 0, -0.7031881331576474),
            511: (0.7110038321881695, 0, 0, -0.7031881331576474),
            512: (0.7110040216778436, 0, 0, -0.703187941561808),
            513: (0.7110038321881695, 0, 0, -0.7031881331576474),
            514: (0.7110038321881695, 0, 0, -0.7031881331576474),
            515: (0.7110038321881695, 0, 0, -0.7031881331576474),
            516: (0.7110038321881695, 0, 0, -0.7031881331576474),
            517: (0.7110038321881695, 0, 0, -0.7031881331576474),
            518: (0.7110040216778436, 0, 0, -0.703187941561808),
            519: (0.7110038321881695, 0, 0, -0.7031881331576474),
            520: (0.7110038321881695, 0, 0, -0.7031881331576474),
            521: (0.7110038321881695, 0, 0, -0.7031881331576474),
            522: (0.7110040216778436, 0, 0, -0.703187941561808),
            523: (0.7110038321881695, 0, 0, -0.7031881331576474),
            524: (0.7110038321881695, 0, 0, -0.7031881331576474),
            525: (0.7110038321881695, 0, 0, -0.7031881331576474),
            526: (0.7110040216778436, 0, 0, -0.703187941561808),
            527: (0.7110040216778436, 0, 0, -0.703187941561808),
            528: (0.7110040216778436, 0, 0, -0.703187941561808),
            529: (0.7110038321881695, 0, 0, -0.7031881331576474),
            530: (0.7110038321881695, 0, 0, -0.7031881331576474),
            531: (0.7110040216778436, 0, 0, -0.703187941561808),
            532: (0.7110038321881695, 0, 0, -0.7031881331576474),
            533: (0.7110038321881695, 0, 0, -0.7031881331576474),
            534: (0.7110040216778436, 0, 0, -0.703187941561808),
            535: (0.7110038321881695, 0, 0, -0.7031881331576474),
            536: (0.7110038321881695, 0, 0, -0.7031881331576474),
            537: (0.711003642698444, 0, 0, -0.7031883247534357),
            538: (0.7110040216778436, 0, 0, -0.7031879415618079),
            539: (0.7110040216778436, 0, 0, -0.7031879415618079),
            540: (0.7110038321881696, 0, 0, -0.7031881331576473),
            541: (0.7110038321881696, 0, 0, -0.7031881331576473),
            542: (0.7110036426984441, 0, 0, -0.7031883247534356),
            543: (0.7110040216778437, 0, 0, -0.7031879415618078),
            544: (0.7110040216778437, 0, 0, -0.7031879415618078),
            545: (0.7110040216778437, 0, 0, -0.7031879415618078),
            546: (0.7110038321881698, 0, 0, -0.7031881331576472),
            547: (0.7110038321881698, 0, 0, -0.7031881331576472),
            548: (0.7110038321881698, 0, 0, -0.7031881331576472),
            549: (0.7110038321881698, 0, 0, -0.7031881331576472),
            550: (0.7110038321881698, 0, 0, -0.7031881331576472),
            551: (0.7110038321881698, 0, 0, -0.7031881331576472),
            552: (0.7110038321881698, 0, 0, -0.7031881331576472),
            553: (0.7110038321881698, 0, 0, -0.7031881331576472),
            554: (0.7110038321881698, 0, 0, -0.7031881331576472),
            555: (0.7110038321881698, 0, 0, -0.7031881331576472),
            556: (0.7110038321881698, 0, 0, -0.7031881331576472),
            557: (0.7110038321881698, 0, 0, -0.7031881331576472),
            558: (0.7110038321881698, 0, 0, -0.7031881331576472),
            559: (0.7110038321881698, 0, 0, -0.7031881331576472),
            560: (0.7110038321881698, 0, 0, -0.7031881331576472),
            561: (0.7110040216778437, 0, 0, -0.7031879415618078),
            562: (0.7110040216778437, 0, 0, -0.7031879415618078),
            563: (0.7110040216778437, 0, 0, -0.7031879415618078),
            564: (0.7110040216778437, 0, 0, -0.7031879415618078),
            565: (0.7110036426984441, 0, 0, -0.7031883247534356),
            566: (0.7110038321881696, 0, 0, -0.7031881331576473),
            567: (0.7110038321881696, 0, 0, -0.7031881331576473),
            568: (0.7110038321881696, 0, 0, -0.7031881331576473),
            569: (0.7110038321881696, 0, 0, -0.7031881331576473),
            570: (0.7110040216778436, 0, 0, -0.7031879415618079),
            571: (0.7110040216778436, 0, 0, -0.7031879415618079),
            572: (0.7110040216778436, 0, 0, -0.7031879415618079),
            573: (0.7110038321881696, 0, 0, -0.7031881331576473),
            574: (0.7110038321881696, 0, 0, -0.7031881331576473),
            575: (0.7110038321881696, 0, 0, -0.7031881331576473),
            576: (0.7110038321881696, 0, 0, -0.7031881331576473),
            577: (0.7110038321881696, 0, 0, -0.7031881331576473),
            578: (0.711004211167466, 0, 0, -0.7031877499659173),
            579: (0.7110038321881696, 0, 0, -0.7031881331576473),
            580: (0.7110038321881696, 0, 0, -0.7031881331576473),
            581: (0.7110038321881696, 0, 0, -0.7031881331576473),
            582: (0.7110038321881696, 0, 0, -0.7031881331576473),
            583: (0.711004211167466, 0, 0, -0.7031877499659173),
            584: (0.7110038321881696, 0, 0, -0.7031881331576473),
            585: (0.7110038321881696, 0, 0, -0.7031881331576473),
            586: (0.7110038321881696, 0, 0, -0.7031881331576473),
            587: (0.7110038321881696, 0, 0, -0.7031881331576473),
            588: (0.711004211167466, 0, 0, -0.7031877499659173),
            589: (0.7110038321881696, 0, 0, -0.7031881331576473),
            590: (0.7110038321881696, 0, 0, -0.7031881331576473),
            591: (0.7110038321881696, 0, 0, -0.7031881331576473),
            592: (0.7110038321881696, 0, 0, -0.7031881331576473),
            593: (0.7110038321881696, 0, 0, -0.7031881331576473),
            594: (0.7110038321881696, 0, 0, -0.7031881331576473),
            595: (0.7110038321881696, 0, 0, -0.7031881331576473),
            596: (0.7110038321881696, 0, 0, -0.7031881331576473),
            597: (0.711004211167466, 0, 0, -0.7031877499659173),
            598: (0.7110038321881696, 0, 0, -0.7031881331576473),
            599: (0.7110038321881696, 0, 0, -0.7031881331576473),
            600: (0.7110038321881696, 0, 0, -0.7031881331576473),
            601: (0.7110038321881696, 0, 0, -0.7031881331576473),
            602: (0.7110038321881696, 0, 0, -0.7031881331576473),
            603: (0.7110038321881696, 0, 0, -0.7031881331576473),
            604: (0.7110038321881696, 0, 0, -0.7031881331576473),
            605: (0.7110038321881696, 0, 0, -0.7031881331576473),
            606: (0.7110038321881696, 0, 0, -0.7031881331576473),
            607: (0.7110038321881696, 0, 0, -0.7031881331576473),
            608: (0.7110038321881696, 0, 0, -0.7031881331576473),
            609: (0.7110038321881696, 0, 0, -0.7031881331576473),
            610: (0.7110038321881696, 0, 0, -0.7031881331576473),
            611: (0.7110038321881696, 0, 0, -0.7031881331576473),
            612: (0.7110038321881696, 0, 0, -0.7031881331576473),
            613: (0.7110038321881696, 0, 0, -0.7031881331576473),
            614: (0.7110038321881696, 0, 0, -0.7031881331576473),
            615: (0.7110038321881696, 0, 0, -0.7031881331576473),
            616: (0.7110038321881696, 0, 0, -0.7031881331576473),
            617: (0.7110038321881696, 0, 0, -0.7031881331576473),
            618: (0.7110038321881696, 0, 0, -0.7031881331576473),
            619: (0.7110038321881696, 0, 0, -0.7031881331576473),
            620: (0.7110038321881696, 0, 0, -0.7031881331576473),
            621: (0.711004211167466, 0, 0, -0.7031877499659173),
            622: (0.7110038321881696, 0, 0, -0.7031881331576473),
            623: (0.7110038321881696, 0, 0, -0.7031881331576473),
            624: (0.7110038321881696, 0, 0, -0.7031881331576473),
            625: (0.711004211167466, 0, 0, -0.7031877499659173),
            626: (0.7110038321881696, 0, 0, -0.7031881331576473),
            627: (0.7110038321881696, 0, 0, -0.7031881331576473),
            628: (0.7110038321881696, 0, 0, -0.7031881331576473),
            629: (0.7110038321881696, 0, 0, -0.7031881331576473),
            630: (0.7110038321881696, 0, 0, -0.7031881331576473),
            631: (0.7110038321881696, 0, 0, -0.7031881331576473),
            632: (0.7110038321881696, 0, 0, -0.7031881331576473),
            633: (0.7110038321881696, 0, 0, -0.7031881331576473),
            634: (0.7110038321881696, 0, 0, -0.7031881331576473),
            635: (0.7110038321881696, 0, 0, -0.7031881331576473),
            636: (0.711004211167466, 0, 0, -0.7031877499659173),
            637: (0.7110038321881696, 0, 0, -0.7031881331576473),
            638: (0.7110038321881696, 0, 0, -0.7031881331576473),
            639: (0.7110038321881696, 0, 0, -0.7031881331576473),
            640: (0.7110038321881696, 0, 0, -0.7031881331576473),
            641: (0.7110038321881696, 0, 0, -0.7031881331576473),
            642: (0.7110038321881696, 0, 0, -0.7031881331576473),
            643: (0.7110038321881696, 0, 0, -0.7031881331576473),
            644: (0.7110038321881696, 0, 0, -0.7031881331576473),
            645: (0.7110038321881696, 0, 0, -0.7031881331576473),
            646: (0.7110038321881696, 0, 0, -0.7031881331576473),
            647: (0.7110038321881696, 0, 0, -0.7031881331576473),
            648: (0.7110038321881696, 0, 0, -0.7031881331576473),
            649: (0.7110038321881696, 0, 0, -0.7031881331576473),
            650: (0.7110038321881696, 0, 0, -0.7031881331576473),
            651: (0.7110038321881696, 0, 0, -0.7031881331576473),
            652: (0.7110038321881696, 0, 0, -0.7031881331576473),
            653: (0.7110038321881696, 0, 0, -0.7031881331576473),
            654: (0.7110038321881696, 0, 0, -0.7031881331576473),
            655: (0.711004211167466, 0, 0, -0.7031877499659173),
            656: (0.7110038321881696, 0, 0, -0.7031881331576473),
            657: (0.7110038321881696, 0, 0, -0.7031881331576473),
            658: (0.7110038321881696, 0, 0, -0.7031881331576473),
            659: (0.711004211167466, 0, 0, -0.7031877499659173),
            660: (0.7110038321881696, 0, 0, -0.7031881331576473),
            661: (0.7110038321881696, 0, 0, -0.7031881331576473),
            662: (0.7110038321881696, 0, 0, -0.7031881331576473),
            663: (0.7110038321881696, 0, 0, -0.7031881331576473),
            664: (0.7110038321881696, 0, 0, -0.7031881331576473),
            665: (0.7110038321881696, 0, 0, -0.7031881331576473),
            666: (0.7110038321881696, 0, 0, -0.7031881331576473),
            667: (0.7110038321881696, 0, 0, -0.7031881331576473),
            668: (0.7110038321881696, 0, 0, -0.7031881331576473),
            669: (0.7110038321881696, 0, 0, -0.7031881331576473),
            670: (0.7110038321881696, 0, 0, -0.7031881331576473),
            671: (0.7110038321881696, 0, 0, -0.7031881331576473),
            672: (0.7110038321881696, 0, 0, -0.7031881331576473),
            673: (0.7110038321881696, 0, 0, -0.7031881331576473),
            674: (0.7110038321881696, 0, 0, -0.7031881331576473),
            675: (0.711004211167466, 0, 0, -0.7031877499659173),
            676: (0.711004211167466, 0, 0, -0.7031877499659173),
            677: (0.7110038321881696, 0, 0, -0.7031881331576473),
            678: (0.7110038321881696, 0, 0, -0.7031881331576473),
            679: (0.7110038321881696, 0, 0, -0.7031881331576473),
            680: (0.7110038321881696, 0, 0, -0.7031881331576473),
            681: (0.7110038321881696, 0, 0, -0.7031881331576473),
            682: (0.7110038321881696, 0, 0, -0.7031881331576473),
            683: (0.711004211167466, 0, 0, -0.7031877499659173),
            684: (0.7110038321881696, 0, 0, -0.7031881331576473),
            685: (0.7110038321881696, 0, 0, -0.7031881331576473),
            686: (0.7110038321881696, 0, 0, -0.7031881331576473),
            687: (0.7110038321881696, 0, 0, -0.7031881331576473),
            688: (0.711004211167466, 0, 0, -0.7031877499659173),
            689: (0.7110038321881696, 0, 0, -0.7031881331576473),
            690: (0.7110038321881696, 0, 0, -0.7031881331576473),
            691: (0.7110038321881696, 0, 0, -0.7031881331576473),
            692: (0.7110038321881696, 0, 0, -0.7031881331576473),
            693: (0.7110038321881696, 0, 0, -0.7031881331576473),
            694: (0.7110038321881696, 0, 0, -0.7031881331576473),
            695: (0.7110038321881696, 0, 0, -0.7031881331576473),
            696: (0.711004211167466, 0, 0, -0.7031877499659173),
            697: (0.7110038321881696, 0, 0, -0.7031881331576473),
            698: (0.7110038321881696, 0, 0, -0.7031881331576473),
            699: (0.7110038321881696, 0, 0, -0.7031881331576473),
            700: (0.7110038321881696, 0, 0, -0.7031881331576473),
            701: (0.7110038321881696, 0, 0, -0.7031881331576473),
            702: (0.7110038321881696, 0, 0, -0.7031881331576473),
            703: (0.7110038321881696, 0, 0, -0.7031881331576473),
            704: (0.7110038321881696, 0, 0, -0.7031881331576473),
            705: (0.7110038321881696, 0, 0, -0.7031881331576473),
            706: (0.7110038321881696, 0, 0, -0.7031881331576473),
            707: (0.7110038321881696, 0, 0, -0.7031881331576473),
            708: (0.7110038321881696, 0, 0, -0.7031881331576473),
            709: (0.7110038321881696, 0, 0, -0.7031881331576473),
            710: (0.7110038321881696, 0, 0, -0.7031881331576473),
            711: (0.7110038321881696, 0, 0, -0.7031881331576473),
            712: (0.7110038321881696, 0, 0, -0.7031881331576473),
            713: (0.7110038321881696, 0, 0, -0.7031881331576473),
            714: (0.7110038321881696, 0, 0, -0.7031881331576473),
            715: (0.7110038321881696, 0, 0, -0.7031881331576473),
            716: (0.7110038321881696, 0, 0, -0.7031881331576473),
            717: (0.711004211167466, 0, 0, -0.7031877499659173),
            718: (0.7110038321881696, 0, 0, -0.7031881331576473),
            719: (0.7110038321881696, 0, 0, -0.7031881331576473),
            720: (0.7110038321881696, 0, 0, -0.7031881331576473),
            721: (0.7110038321881696, 0, 0, -0.7031881331576473),
            722: (0.7110038321881696, 0, 0, -0.7031881331576473),
            723: (0.7110038321881696, 0, 0, -0.7031881331576473),
            724: (0.7110038321881696, 0, 0, -0.7031881331576473),
            725: (0.7110038321881696, 0, 0, -0.7031881331576473),
            726: (0.7110038321881696, 0, 0, -0.7031881331576473),
            727: (0.7110038321881696, 0, 0, -0.7031881331576473),
            728: (0.7110038321881696, 0, 0, -0.7031881331576473),
            729: (0.7110038321881696, 0, 0, -0.7031881331576473),
            730: (0.7110038321881696, 0, 0, -0.7031881331576473),
            731: (0.7110038321881696, 0, 0, -0.7031881331576473),
            732: (0.7110038321881696, 0, 0, -0.7031881331576473),
            733: (0.7110038321881696, 0, 0, -0.7031881331576473),
            734: (0.7110038321881696, 0, 0, -0.7031881331576473),
            735: (0.7110038321881696, 0, 0, -0.7031881331576473),
            736: (0.7110038321881696, 0, 0, -0.7031881331576473),
            737: (0.7110038321881696, 0, 0, -0.7031881331576473),
            738: (0.7110038321881696, 0, 0, -0.7031881331576473),
            739: (0.7110038321881696, 0, 0, -0.7031881331576473),
            740: (0.7110038321881696, 0, 0, -0.7031881331576473),
            741: (0.711004211167466, 0, 0, -0.7031877499659173),
            742: (0.7110038321881696, 0, 0, -0.7031881331576473),
            743: (0.7110038321881696, 0, 0, -0.7031881331576473),
            744: (0.7110038321881696, 0, 0, -0.7031881331576473),
            745: (0.711004211167466, 0, 0, -0.7031877499659173),
            746: (0.7110038321881696, 0, 0, -0.7031881331576473),
            747: (0.7110038321881696, 0, 0, -0.7031881331576473),
            748: (0.7110038321881696, 0, 0, -0.7031881331576473),
            749: (0.7110038321881696, 0, 0, -0.7031881331576473),
            750: (0.7110038321881696, 0, 0, -0.7031881331576473),
            751: (0.7110038321881696, 0, 0, -0.7031881331576473),
            752: (0.7110038321881696, 0, 0, -0.7031881331576473),
            753: (0.7110038321881696, 0, 0, -0.7031881331576473),
            754: (0.7110038321881696, 0, 0, -0.7031881331576473),
            755: (0.7110038321881696, 0, 0, -0.7031881331576473),
            756: (0.7110038321881696, 0, 0, -0.7031881331576473),
            757: (0.7110038321881696, 0, 0, -0.7031881331576473),
            758: (0.7110038321881696, 0, 0, -0.7031881331576473),
            759: (0.7110038321881696, 0, 0, -0.7031881331576473),
            760: (0.7110038321881696, 0, 0, -0.7031881331576473),
            761: (0.711004211167466, 0, 0, -0.7031877499659173),
            762: (0.7110038321881696, 0, 0, -0.7031881331576473),
            763: (0.7110038321881696, 0, 0, -0.7031881331576473),
            764: (0.7110038321881696, 0, 0, -0.7031881331576473),
            765: (0.7110038321881696, 0, 0, -0.7031881331576473),
            766: (0.711004211167466, 0, 0, -0.7031877499659173),
            767: (0.7110038321881696, 0, 0, -0.7031881331576473),
            768: (0.7110038321881696, 0, 0, -0.7031881331576473),
            769: (0.7110038321881696, 0, 0, -0.7031881331576473),
            770: (0.7110038321881696, 0, 0, -0.7031881331576473),
            771: (0.7110038321881696, 0, 0, -0.7031881331576473),
            772: (0.7110038321881696, 0, 0, -0.7031881331576473),
            773: (0.7110038321881696, 0, 0, -0.7031881331576473),
            774: (0.7110038321881696, 0, 0, -0.7031881331576473),
            775: (0.7110038321881696, 0, 0, -0.7031881331576473),
            776: (0.7110038321881696, 0, 0, -0.7031881331576473),
            777: (0.7110038321881696, 0, 0, -0.7031881331576473),
            778: (0.7110038321881696, 0, 0, -0.7031881331576473),
            779: (0.7110038321881696, 0, 0, -0.7031881331576473),
            780: (0.7110038321881696, 0, 0, -0.7031881331576473),
            781: (0.711004211167466, 0, 0, -0.7031877499659173),
            782: (0.7110038321881696, 0, 0, -0.7031881331576473),
            783: (0.7110038321881696, 0, 0, -0.7031881331576473),
            784: (0.7110038321881696, 0, 0, -0.7031881331576473),
            785: (0.711004211167466, 0, 0, -0.7031877499659173),
            786: (0.7110038321881696, 0, 0, -0.7031881331576473),
            787: (0.7110038321881696, 0, 0, -0.7031881331576473),
            788: (0.7110038321881696, 0, 0, -0.7031881331576473),
            789: (0.7110038321881696, 0, 0, -0.7031881331576473),
        }
        custom double3 xformOp:translate
        double3 xformOp:translate.timeSamples = {
            0: (0, 0, 0),
            1: (0, 0, 0),
            2: (0, 0, 0),
            3: (0, 0, 0),
            4: (0, 0, 0),
            5: (0, 0, 0),
            6: (0, 0, 0),
            7: (0, 0, 0),
            8: (0, 0, 0),
            9: (0, 0, 0),
            10: (0, 0, 0),
            11: (0, 0, 0),
            12: (0, 0, 0),
            13: (0, 0, 0),
            14: (0, 0, 0),
            15: (0, 0, 0),
            16: (0, 0, 0),
            17: (0, 0, 0),
            18: (0, 0, 0),
            19: (0, 0, 0),
            20: (0, 0, 0),
            21: (0, 0, 0),
            22: (0, 0, 0),
            23: (0, 0, 0),
            24: (0, 0, 0),
            25: (0, 0, 0),
            26: (0, 0, 0),
            27: (0, 0, 0),
            28: (0, 0, 0),
            29: (0, 0, 0),
            30: (0, 0, 0),
            31: (0, 0, 0),
            32: (0, 0, 0),
            33: (0, 0, 0),
            34: (0, 0, 0),
            35: (0, 0, 0),
            36: (0, 0, 0),
            37: (0, 0, 0),
            38: (0, 0, 0),
            39: (0, 0, 0),
            40: (0, 0, 0),
            41: (0, 0, 0),
            42: (0, 0, 0),
            43: (0, 0, 0),
            44: (0, 0, 0),
            45: (0, 0, 0),
            46: (0, 0, 0),
            47: (0, 0, 0),
            48: (0, 0, 0),
            49: (0, 0, 0),
            50: (0, 0, 0),
            51: (0, 0, 0),
            52: (0, 0, 0),
            53: (0, 0, 0),
            54: (0, 0, 0),
            55: (0, 0, 0),
            56: (0, 0, 0),
            57: (0, 0, 0),
            58: (0, 0, 0),
            59: (0, 0, 0),
            60: (0, 0, 0),
            61: (0, 0, 0),
            62: (0, 0, 0),
            63: (0, 0, 0),
            64: (0, 0, 0),
            65: (0, 0, 0),
            66: (0, 0, 0),
            67: (0, 0, 0),
            68: (0, 0, 0),
            69: (0, 0, 0),
            70: (0, 0, 0),
            71: (0, 0, 0),
            72: (0, 0, 0),
            73: (0, 0, 0),
            74: (0, 0, 0),
            75: (0, 0, 0),
            76: (0, 0, 0),
            77: (0, 0, 0),
            78: (0, 0, 0),
            79: (0, 0, 0),
            80: (0, 0, 0),
            81: (0, 0, 0),
            82: (0, 0, 0),
            83: (0, 0, 0),
            84: (0, 0, 0),
            85: (0, 0, 0),
            86: (0, 0, 0),
            87: (0, 0, 0),
            88: (0, 0, 0),
            89: (0, 0, 0),
            90: (0, 0, 0),
            91: (0, 0, 0),
            92: (0, 0, 0),
            93: (0, 0, 0),
            94: (0, 0, 0),
            95: (0, 0, 0),
            96: (0, 0, 0),
            97: (0, 0, 0),
            98: (0, 0, 0),
            99: (0, 0, 0),
            100: (0, 0, 0),
            101: (0, 0, 0),
            102: (0, 0, 0),
            103: (0, 0, 0),
            104: (0, 0, 0),
            105: (0, 0, 0),
            106: (0, 0, 0),
            107: (0, 0, 0),
            108: (0, 0, 0),
            109: (0, 0, 0),
            110: (0, 0, 0),
            111: (0, 0, 0),
            112: (0, 0, 0),
            113: (0, 0, 0),
            114: (0, 0, 0),
            115: (0, 0, 0),
            116: (0, 0, 0),
            117: (0, 0, 0),
            118: (0, 0, 0),
            119: (0, 0, 0),
            120: (0, 0, 0),
            121: (0, 0, 0),
            122: (0, 0, 0),
            123: (0, 0, 0),
            124: (0, 0, 0),
            125: (0, 0, 0),
            126: (0, 0, 0),
            127: (0, 0, 0),
            128: (0, 0, 0),
            129: (0, 0, 0),
            130: (0, 0, 0),
            131: (0, 0, 0),
            132: (0, 0, 0),
            133: (0, 0, 0),
            134: (0, 0, 0),
            135: (0, 0, 0),
            136: (0, 0, 0),
            137: (0, 0, 0),
            138: (0, 0, 0),
            139: (0, 0, 0),
            140: (0, 0, 0),
            141: (0, 0, 0),
            142: (0, 0, 0),
            143: (0, 0, 0),
            144: (0, 0, 0),
            145: (0, 0, 0),
            146: (0, 0, 0),
            147: (0, 0, 0),
            148: (0, 0, 0),
            149: (0, 0, 0),
            150: (0, 0, 0),
            151: (0, 0, 0),
            152: (0, 0, 0),
            153: (0, 0, 0),
            154: (0, 0, 0),
            155: (0, 0, 0),
            156: (0, 0, 0),
            157: (0, 0, 0),
            158: (0, 0, 0),
            159: (0, 0, 0),
            160: (0, 0, 0),
            161: (0, 0, 0),
            162: (0, 0, 0),
            163: (0, 0, 0),
            164: (0, 0, 0),
            165: (0, 0, 0),
            166: (0, 0, 0),
            167: (0, 0, 0),
            168: (0, 0, 0),
            169: (0, 0, 0),
            170: (0, 0, 0),
            171: (0, 0, 0),
            172: (0, 0, 0),
            173: (0, 0, 0),
            174: (0, 0, 0),
            175: (0, 0, 0),
            176: (0, 0, 0),
            177: (0, 0, 0),
            178: (0, 0, 0),
            179: (0, 0, 0),
            180: (0, 0, 0),
            181: (0, 0, 0),
            182: (0, 0, 0),
            183: (0, 0, 0),
            184: (0, 0, 0),
            185: (0, 0, 0),
            186: (0, 0, 0),
            187: (0, 0, 0),
            188: (0, 0, 0),
            189: (0, 0, 0),
            190: (0, 0, 0),
            191: (0, 0, 0),
            192: (0, 0, 0),
            193: (0, 0, 0),
            194: (0, 0, 0),
            195: (0, 0, 0),
            196: (0, 0, 0),
            197: (0, 0, 0),
            198: (0, 0, 0),
            199: (0, 0, 0),
            200: (0, 0, 0),
            201: (0, 0, 0),
            202: (0, 0, 0),
            203: (0, 0, 0),
            204: (0, 0, 0),
            205: (0, 0, 0),
            206: (0, 0, 0),
            207: (0, 0, 0),
            208: (0, 0, 0),
            209: (0, 0, 0),
            210: (0, 0, 0),
            211: (0, 0, 0),
            212: (0, 0, 0),
            213: (0, 0, 0),
            214: (0, 0, 0),
            215: (0, 0, 0),
            216: (0, 0, 0),
            217: (0, 0, 0),
            218: (0, 0, 0),
            219: (0, 0, 0),
            220: (0, 0, 0),
            221: (0, 0, 0),
            222: (0, 0, 0),
            223: (0, 0, 0),
            224: (0, 0, 0),
            225: (0, 0, 0),
            226: (0, 0, 0),
            227: (0, 0, 0),
            228: (0, 0, 0),
            229: (0, 0, 0),
            230: (0, 0, 0),
            231: (0, 0, 0),
            232: (0, 0, 0),
            233: (0, 0, 0),
            234: (0, 0, 0),
            235: (0, 0, 0),
            236: (0, 0, 0),
            237: (0, 0, 0),
            238: (0, 0, 0),
            239: (0, 0, 0),
            240: (0, 0, 0),
            241: (0, 0, 0),
            242: (0, 0, 0),
            243: (0, 0, 0),
            244: (0, 0, 0),
            245: (0, 0, 0),
            246: (0, 0, 0),
            247: (0, 0, 0),
            248: (0, 0, 0),
            249: (0, 0, 0),
            250: (0, 0, 0),
            251: (0, 0, 0),
            252: (0, 0, 0),
            253: (0, 0, 0),
            254: (0, 0, 0),
            255: (0, 0, 0),
            256: (0, 0, 0),
            257: (0, 0, 0),
            258: (0, 0, 0),
            259: (0, 0, 0),
            260: (0, 0, 0),
            261: (0, 0, 0),
            262: (0, 0, 0),
            263: (0.0000013898066585095638, -0.00011526144170186968, 0),
            264: (0.000005472885454539847, -0.00045499480368959807, 0),
            265: (0.000012127147359732323, -0.0010104107746347732, 0),
            266: (0.000021236163591380098, -0.001773033309029462, 0),
            267: (0.00003268965048217119, -0.0027347518440007956, 0),
            268: (0.00004638263214658752, -0.003887763284598116, 0),
            269: (0.00006221505621831286, -0.005224554601074485, 0),
            270: (0.00008009203953462242, -0.0067379318385116516, 0),
            271: (0.00009992293958591603, -0.008420956300638011, 0),
            272: (0.00012162177195453112, -0.01026699096481458, 0),
            273: (0.00014510640367409604, -0.012269636664422148, 0),
            274: (0.00017029873386967379, -0.014422755296642456, 0),
            275: (0.0001971243439468489, -0.016720440814315545, 0),
            276: (0.0002255124064042797, -0.01915703083199457, 0),
            277: (0.00025539516422019176, -0.02172707761969555, 0),
            278: (0.0002867081655495035, -0.0244253539027026, 0),
            279: (0.00031938978391206536, -0.027246823854823642, 0),
            280: (0.0003533812920115389, -0.030186654702511757, 0),
            281: (0.000388626839722309, -0.033240210922645924, 0),
            282: (0.00042507310752218944, -0.036403036839218694, 0),
            283: (0.00046266894544137174, -0.03967083922008096, 0),
            284: (0.0005013655794603123, -0.04303951048451985, 0),
            285: (0.0005411164381960442, -0.04650508808791971, 0),
            286: (0.0005818772584779708, -0.050063780631753985, 0),
            287: (0.0006236054927204988, -0.053711924351853665, 0),
            288: (0.0006662606121873302, -0.057446023732151956, 0),
            289: (0.0007098036283868012, -0.06126270799182423, 0),
            290: (0.0007541976153843435, -0.06515872817802416, 0),
            291: (0.0007994072164152559, -0.06913098908505212, 0),
            292: (0.0008453983077205044, -0.07317648252996084, 0),
            293: (0.0008921388479275756, -0.07729235116984078, 0),
            294: (0.000939597573474893, -0.08147583629470821, 0),
            295: (0.0009877447563743323, -0.08572427636809554, 0),
            296: (0.0010365521597882742, -0.09003513168821149, 0),
            297: (0.0010859924646627885, -0.09440596118437562, 0),
            298: (0.0011360396032175472, -0.09883439195050503, 0),
            299: (0.001186668982645118, -0.10331819177332267, 0),
            300: (0.0012378563260204022, -0.10785517195433349, 0),
            301: (0.001289579106066775, -0.1124432460433449, 0),
            302: (0.0013418155944659345, -0.11708042404680137, 0),
            303: (0.0013945446228538151, -0.1217647689121652, 0),
            304: (0.001447746269963854, -0.1264944382253781, 0),
            305: (0.0015014012562771127, -0.13126764967464977, 0),
            306: (0.0015554912194812893, -0.13608270190014757, 0),
            307: (0.0016099983910830404, -0.14093795029057476, 0),
            308: (0.0016649059327817413, -0.14583181749638965, 0),
            309: (0.0017201977318636972, -0.150762791709078, 0),
            310: (0.001775858298421102, -0.15572941342587343, 0),
            311: (0.0018318727004229254, -0.16073029893227342, 0),
            312: (0.0018882264976072495, -0.16576407973972304, 0),
            313: (0.001944906345511637, -0.17082949614280507, 0),
            314: (0.002001898798425223, -0.17592527755791548, 0),
            315: (0.0020591917372385516, -0.18105026073182554, 0),
            316: (0.002116772788707629, -0.18620327951265864, 0),
            317: (0.0021746305192322764, -0.19138324897249212, 0),
            318: (0.002232753715235488, -0.19658909723631954, 0),
            319: (0.002291132006844035, -0.20181982930171838, 0),
            320: (0.00234975476160148, -0.2070744559721922, 0),
            321: (0.0024086123138960503, -0.212352048965465, 0),
            322: (0.002467695386088352, -0.21765168869890206, 0),
            323: (0.0025269950929238056, -0.2229725368197558, 0),
            324: (0.0025865024947169303, -0.22831374046967254, 0),
            325: (0.0026462096827423705, -0.23367451350643806, 0),
            326: (0.0027061085926707714, -0.23905407849384874, 0),
            327: (0.002766191703559199, -0.2444517218160607, 0),
            328: (0.002826451366549533, -0.24986670084645396, 0),
            329: (0.002886880494881814, -0.25529837159407087, 0),
            330: (0.002947472108371857, -0.2607460494490647, 0),
            331: (0.0030082207391342953, -0.26620910200684156, 0),
            332: (0.0030691196279518905, -0.2716869781113455, 0),
            333: (0.003130161851809624, -0.2771790453741096, 0),
            334: (0.0031913431227258847, -0.28268474100702445, 0),
            335: (0.0032526580939921273, -0.28820358926985784, 0),
            336: (0.0033141003832226467, -0.29373500418811926, 0),
            337: (0.0033756657916213005, -0.29927856223036914, 0),
            338: (0.003437348217933301, -0.3048337354430233, 0),
            339: (0.0034991439652041476, -0.3104000770799992, 0),
            340: (0.0035610487299487254, -0.3159771694136631, 0),
            341: (0.003623057950168284, -0.3215645541030526, 0),
            342: (0.003685167727267804, -0.3271618830447191, 0),
            343: (0.003747373387460806, -0.33276872110841155, 0),
            344: (0.0038096721674597237, -0.33838470277163896, 0),
            345: (0.003872059929714929, -0.3440094915393829, 0),
            346: (0.003934532277730318, -0.3496427277094816, 0),
            347: (0.003997086084527489, -0.3552840631713433, 0),
            348: (0.00405971925180571, -0.3609332078259085, 0),
            349: (0.004122428409480665, -0.36658982516963734, 0),
            350: (0.004185210457942166, -0.3722536715348411, 0),
            351: (0.0042480620303281145, -0.3779244104174977, 0),
            352: (0.00431098053807197, -0.38360180974950675, 0),
            353: (0.00437396288007474, -0.38928559104806454, 0),
            354: (0.0044370074872838484, -0.3949754758137176, 0),
            355: (0.004500112292258145, -0.4006712783923418, 0),
            356: (0.004563273686879914, -0.4063727435165247, 0),
            357: (0.004626489602217952, -0.412079650716706, 0),
            358: (0.004689758225402657, -0.41779176791561917, 0),
            359: (0.004753077749261756, -0.4235089326657015, 0),
            360: (0.004816445337223179, -0.42923092450577616, 0),
            361: (0.004879858924142074, -0.43495752296611884, 0),
            362: (0.004943317733889004, -0.44068858879687944, 0),
            363: (0.005006819960976764, -0.44642392473571885, 0),
            364: (0.005070364058997734, -0.45216339154145346, 0),
            365: (0.005133947966099247, -0.45790680355912744, 0),
            366: (0.005197569620173019, -0.46365400994868183, 0),
            367: (0.0052612277323173815, -0.46940485986006886, 0),
            368: (0.005324921277201667, -0.4751591908374462, 0),
            369: (0.005388648703557162, -0.4809169332695529, 0),
            370: (0.005452408471401195, -0.4866778782867568, 0),
            371: (0.005516200065486085, -0.4924419446572172, 0),
            372: (0.005580021167303268, -0.4982089931497211, 0),
            373: (0.005643871523329305, -0.5039788961164465, 0),
            374: (0.005707750108809773, -0.5097515607251318, 0),
            375: (0.00577165485246769, -0.5155269057675257, 0),
            376: (0.00583558447438088, -0.5213047455814006, 0),
            377: (0.005899538718289061, -0.5270850569561529, 0),
            378: (0.0059635162980943264, -0.5328677238611585, 0),
            379: (0.006027516965031943, -0.5386526186437924, 0),
            380: (0.006091539685028093, -0.5444397181034478, 0),
            381: (0.006155582915930558, -0.5502288830036003, 0),
            382: (0.006219646662588218, -0.5560200437126708, 0),
            383: (0.006283729376842624, -0.5618131306162237, 0),
            384: (0.006347830027935939, -0.5676080508915321, 0),
            385: (0.006411949139890045, -0.5734047813207622, 0),
            386: (0.006476085173973967, -0.5792031826626806, 0),
            387: (0.006540238124506652, -0.5850032549171549, 0),
            388: (0.006604406452907206, -0.5908048588429499, 0),
            389: (0.006668590160742409, -0.5966079944402204, 0),
            390: (0.006732788729070467, -0.6024126152950362, 0),
            391: (0.006797000619526253, -0.608218582166268, 0),
            392: (0.0068612268709323425, -0.614025918250589, 0),
            393: (0.006925465929425794, -0.6198345539365498, 0),
            394: (0.006989716768557768, -0.6256443963985476, 0),
            395: (0.007053980428916491, -0.6314554688352454, 0),
            396: (0.007118254839471466, -0.63726765521952, 0),
            397: (0.00718254052888965, -0.6430809323344371, 0),
            398: (0.007246838023359025, -0.6488952769658504, 0),
            399: (0.007311145769205173, -0.6547106195031832, 0),
            400: (0.007375463239402254, -0.6605269831605904, 0),
            401: (0.007439788366548688, -0.6663442519099111, 0),
            402: (0.007504122717700135, -0.6721624257386419, 0),
            403: (0.007568465779400246, -0.677981458228303, 0),
            404: (0.00763281703820963, -0.683801302969822, 0),
            405: (0.007697178062437498, -0.689621959942069, 0),
            406: (0.00776154624254739, -0.6954434059646131, 0),
            407: (0.00782592055178166, -0.7012655482119154, 0),
            408: (0.007890303072024762, -0.7070884330794025, 0),
            409: (0.007954692776900592, -0.712911967739551, 0),
            410: (0.008019088610205727, -0.7187361986225165, 0),
            411: (0.008083489545084432, -0.7245610329026975, 0),
            412: (0.008147896637919587, -0.7303864241480202, 0),
            413: (0.008212310915037267, -0.7362124651860084, 0),
            414: (0.008276730308630272, -0.7420390399923169, 0),
            415: (0.008341155346947914, -0.7478661253500063, 0),
            416: (0.008405586029990192, -0.7536937212590765, 0),
            417: (0.008470021300438819, -0.7595218741507705, 0),
            418: (0.00853446014709677, -0.7653504215666265, 0),
            419: (0.008598904109703345, -0.7711795027508271, 0),
            420: (0.008663351648239729, -0.777008978459292, 0),
            421: (0.008727804334086417, -0.7828388486774496, 0),
            422: (0.008792261638119048, -0.7886691366194667, 0),
            423: (0.008856722517918844, -0.7944998190857494, 0),
            424: (0.008921187487046648, -0.8003309424928667, 0),
            425: (0.008985653961135607, -0.8061623443999022, 0),
            426: (0.009050125070449293, -0.8119940943990805, 0),
            427: (0.009114600284667596, -0.8178262157084123, 0),
            428: (0.009179077533998065, -0.8236585923044591, 0),
            429: (0.009243559419563018, -0.8294913169936563, 0),
            430: (0.009308043324245003, -0.8353243665955675, 0),
            431: (0.009372528223350796, -0.8411576482846677, 0),
            432: (0.009437016200984555, -0.8469912084563437, 0),
            433: (0.00950150725714628, -0.8528250471105956, 0),
            434: (0.009566001408658464, -0.858659094619518, 0),
            435: (0.009630498109210312, -0.8644934438241509, 0),
            436: (0.00969499686211415, -0.8703279786838345, 0),
            437: (0.009759499752343623, -0.8761627455959577, 0),
            438: (0.009824003636128039, -0.8819977445933221, 0),
            439: (0.009888508529537439, -0.8878329060498645, 0),
            440: (0.00995301598835556, -0.8936682995752205, 0),
            441: (0.010017524969328062, -0.8995039019698365, 0),
            442: (0.010082036019719597, -0.9053396203916406, 0),
            443: (0.010146549635518648, -0.9111755708821493, 0),
            444: (0.01021106479056293, -0.9170116606139461, 0),
            445: (0.010275582527300351, -0.9228479127838555, 0),
            446: (0.010340100231027851, -0.9286843042114225, 0),
            447: (0.010404619987057313, -0.9345208812940405, 0),
            448: (0.010469142854674676, -0.9403575976015763, 0),
            449: (0.010533665689157083, -0.9461944531667711, 0),
            450: (0.010598189549790471, -0.9520314015594913, 0),
            451: (0.010662716522111787, -0.9578684891771283, 0),
            452: (0.010727243461198119, -0.9637057160524252, 0),
            453: (0.010791770366030847, -0.9695430821874153, 0),
            454: (0.010856298296989536, -0.9753805411499312, 0),
            455: (0.010920827254074183, -0.981218092939973, 0),
            456: (0.01098535723728479, -0.9870557375575406, 0),
            457: (0.011049888246621356, -0.9928934750026341, 0),
            458: (0.011114420282083882, -0.9987313052752534, 0),
            459: (0.011178954369798327, -1.0045693212029245, 0),
            460: (0.011243488457512772, -1.0104073371305955, 0),
            461: (0.011308023571353177, -1.0162454458857924, 0),
            462: (0.01137255971131954, -1.022083647468515, 0),
            463: (0.011437096877411864, -1.0279219418787637, 0),
            464: (0.011501635069630147, -1.033760329116538, 0),
            465: (0.011566173261848429, -1.0395987163543123, 0),
            466: (0.011630712480192672, -1.0454371964196125, 0),
            467: (0.011695252724662873, -1.0512757693124386, 0),
            468: (0.011759793995259034, -1.0571144350327906, 0),
            469: (0.011824335265855196, -1.0629531007531425, 0),
            470: (0.011888877562577315, -1.0687918593010202, 0),
            471: (0.011953420885425396, -1.0746307106764237, 0),
            472: (0.012017964208273476, -1.0804695620518272, 0),
            473: (0.012082506470131978, -1.0863084598574282, 0),
            474: (0.012147049758090812, -1.0921474504905007, 0),
            475: (0.012211593046049646, -1.0979864411235731, 0),
            476: (0.012276137360109416, -1.1038255245841717, 0),
            477: (0.012340681674169185, -1.1096646080447703, 0),
            478: (0.012405224928428023, -1.1155037379375374, 0),
            479: (0.012469769208762792, -1.121342960657831, 0),
            480: (0.012534313489097561, -1.1271821833781244, 0),
            481: (0.0125988598553592, -1.1330214524937752, 0),
            482: (0.012663408308837077, -1.138860768006808, 0),
            483: (0.012727956762314953, -1.1447000835198406, 0),
            484: (0.01279250415467813, -1.1505394454630722, 0),
            485: (0.012857050487164758, -1.1563788538384185, 0),
            486: (0.012921598905628268, -1.1622183086091216, 0),
            487: (0.012986147324091778, -1.1680577633798246, 0),
            488: (0.013050694682654337, -1.1738972645826973, 0),
            489: (0.013115244127218782, -1.1797368121809264, 0),
            490: (0.013179793571783227, -1.1855763597791555, 0),
            491: (0.013244343016347672, -1.1914159073773847, 0),
            492: (0.013308893487013654, -1.1972555478031945, 0),
            493: (0.013373441871652144, -1.2030951418335938, 0),
            494: (0.013437992342318126, -1.2089347822594037, 0),
            495: (0.013502544900299842, -1.2147744690825397, 0),
            496: (0.013567097458281557, -1.2206141559056758, 0),
            497: (0.01363164895504787, -1.2264538891589571, 0),
            498: (0.013696198365762292, -1.2322935760168827, 0),
            499: (0.013760748802552644, -1.2381333557023346, 0),
            500: (0.013825300299318957, -1.243973088955616, 0),
            501: (0.013889852822186206, -1.2498129150364234, 0),
            502: (0.013954403258976558, -1.2556526947218754, 0),
            503: (0.01401895369576691, -1.2614924744073273, 0),
            504: (0.014083505158633193, -1.2673323469203055, 0),
            505: (0.014148057681500441, -1.273172173001113, 0),
            506: (0.014212612291734076, -1.2790120454793008, 0),
            507: (0.01427716690196771, -1.2848519179574887, 0),
            508: (0.014341721512201344, -1.2906917904356765, 0),
            509: (0.014406275061170131, -1.2965317093440647, 0),
            510: (0.014470826524036414, -1.302371581857043, 0),
            511: (0.014535379012978626, -1.3082115471975477, 0),
            512: (0.014599932561947413, -1.314051466105936, 0),
            513: (0.0146644861109162, -1.3198913850143241, 0),
            514: (0.014729038599858413, -1.325731350354829, 0),
            515: (0.014793591088800625, -1.3315713156953337, 0),
            516: (0.014858143577742837, -1.3374112810358385, 0),
            517: (0.014922696066685049, -1.3432512463763433, 0),
            518: (0.014987250641754168, -1.349091258112203, 0),
            519: (0.015051805216823286, -1.3549312698480627, 0),
            520: (0.015116357705765499, -1.3607712351885675, 0),
            521: (0.015180911220783641, -1.3666112933565986, 0),
            522: (0.01524546579585276, -1.3724513050924583, 0),
            523: (0.015310020370921879, -1.378291316828318, 0),
            524: (0.015374573885940022, -1.384131374996349, 0),
            525: (0.015439127400958165, -1.3899714331643802, 0),
            526: (0.015503681976027283, -1.39581144490024, 0),
            527: (0.015568238638512836, -1.4016515030334793, 0),
            528: (0.015632795300998387, -1.4074915611667187, 0),
            529: (0.01569735090216844, -1.4133316657301045, 0),
            530: (0.015761904417186584, -1.4191717238981356, 0),
            531: (0.015826458992255703, -1.4250117356339953, 0),
            532: (0.015891014593425755, -1.430851840197381, 0),
            533: (0.01595556913451983, -1.4366919911929386, 0),
            534: (0.016020123709588947, -1.4425320029287982, 0),
            535: (0.016084679310759, -1.448372107492184, 0),
            536: (0.016149233851853073, -1.4542122584877415, 0),
            537: (0.01621378630683269, -1.4600523630859241, 0),
            538: (0.016278339821869558, -1.4658924212541482, 0),
            539: (0.01634289751048107, -1.4717325722149135, 0),
            540: (0.01640745311165112, -1.4775726767782993, 0),
            541: (0.016472007652745195, -1.4834128277738567, 0),
            542: (0.01653656010772481, -1.4892529323720394, 0),
            543: (0.01660111362276168, -1.4950929905402635, 0),
            544: (0.016665671311373195, -1.5009331415010287, 0),
            545: (0.01673022899998471, -1.506773292461794, 0),
            546: (0.01679478460115476, -1.5126133970251798, 0),
            547: (0.01685933914224884, -1.5184535480207373, 0),
            548: (0.016923893683342916, -1.5242936990162947, 0),
            549: (0.016988448224436993, -1.5301338500118522, 0),
            550: (0.01705300276553107, -1.5359740010074097, 0),
            551: (0.017117557306625147, -1.5418141520029671, 0),
            552: (0.017182111847719225, -1.5476543029985246, 0),
            553: (0.017246666388813302, -1.553494453994082, 0),
            554: (0.01731122092990738, -1.5593346049896395, 0),
            555: (0.017375775471001456, -1.565174755985197, 0),
            556: (0.017440330012095533, -1.5710149069807544, 0),
            557: (0.01750488455318961, -1.5768550579763119, 0),
            558: (0.017569439094283688, -1.5826952089718693, 0),
            559: (0.017633993635377765, -1.5885353599674268, 0),
            560: (0.017698548176471842, -1.5943755109629842, 0),
            561: (0.017763104803743435, -1.6002157083539505, 0),
            562: (0.01782766249235495, -1.6060558593147158, 0),
            563: (0.017892220180966464, -1.6118960102754811, 0),
            564: (0.01795677786957798, -1.6177361612362464, 0),
            565: (0.018021333436767012, -1.6235764050595505, 0),
            566: (0.01808588691779816, -1.6294166024853143, 0),
            567: (0.018150441458892233, -1.6352567534808717, 0),
            568: (0.018214995999986307, -1.6410969044764292, 0),
            569: (0.01827955054108038, -1.6469370554719867, 0),
            570: (0.018344107168351973, -1.652777252862953, 0),
            571: (0.018408664856963484, -1.6586174038237183, 0),
            572: (0.018473222545574996, -1.6644575547844835, 0),
            573: (0.018537780198946918, -1.6702978450029216, 0),
            574: (0.018602334740040992, -1.676137995998479, 0),
            575: (0.018666889281135066, -1.6819781469940365, 0),
            576: (0.01873144382222914, -1.687818297989594, 0),
            577: (0.018795998363323213, -1.6936584489851514, 0),
            578: (0.018860557077980858, -1.699498692773658, 0),
            579: (0.018925115792638503, -1.7053389365621645, 0),
            580: (0.018989670333732576, -1.711179087557722, 0),
            581: (0.01905422487482665, -1.7170192385532794, 0),
            582: (0.019118779415920724, -1.7228593895488369, 0),
            583: (0.01918333813057837, -1.7286996333373434, 0),
            584: (0.019247896845236014, -1.73453987712585, 0),
            585: (0.019312451386330087, -1.7403800281214075, 0),
            586: (0.01937700592742416, -1.746220179116965, 0),
            587: (0.019441560468518235, -1.7520603301125224, 0),
            588: (0.01950611918317588, -1.757900573901029, 0),
            589: (0.019570677897833524, -1.7637408176895355, 0),
            590: (0.019635232438927598, -1.769580968685093, 0),
            591: (0.019699786980021672, -1.7754211196806504, 0),
            592: (0.019764341521115746, -1.7812612706762079, 0),
            593: (0.01982889811436168, -1.7871016073268182, 0),
            594: (0.019893452655455755, -1.7929417583223757, 0),
            595: (0.01995800719654983, -1.7987819093179331, 0),
            596: (0.020022561737643902, -1.8046220603134906, 0),
            597: (0.020087120452301547, -1.8104623041019972, 0),
            598: (0.02015167916695919, -1.8163025478905037, 0),
            599: (0.020216233708053265, -1.8221426988860612, 0),
            600: (0.02028078824914734, -1.8279828498816186, 0),
            601: (0.020345342790241413, -1.833823000877176, 0),
            602: (0.020409899383487348, -1.8396633375277864, 0),
            603: (0.020474453924581422, -1.845503488523344, 0),
            604: (0.020539008465675496, -1.8513436395189014, 0),
            605: (0.02060356300676957, -1.8571837905144588, 0),
            606: (0.020668119600015505, -1.8630241271650692, 0),
            607: (0.02073267414110958, -1.8688642781606266, 0),
            608: (0.020797228682203652, -1.874704429156184, 0),
            609: (0.020861783223297726, -1.8805445801517415, 0),
            610: (0.02092633981654366, -1.8863849168023519, 0),
            611: (0.020990894357637735, -1.8922250677979093, 0),
            612: (0.02105544889873181, -1.8980652187934668, 0),
            613: (0.021120003439825882, -1.9039053697890242, 0),
            614: (0.021184560033071818, -1.9097457064396346, 0),
            615: (0.02124911457416589, -1.915585857435192, 0),
            616: (0.021313669115259965, -1.9214260084307495, 0),
            617: (0.02137822365635404, -1.927266159426307, 0),
            618: (0.021442780249599974, -1.9331064960769173, 0),
            619: (0.021507334790694048, -1.9389466470724748, 0),
            620: (0.02157188933178812, -1.9447867980680322, 0),
            621: (0.021636448046445766, -1.9506270418565388, 0),
            622: (0.02170100676110341, -1.9564672856450454, 0),
            623: (0.021765561302197485, -1.9623074366406028, 0),
            624: (0.02183011584329156, -1.9681475876361603, 0),
            625: (0.021894674557949204, -1.9739878314246668, 0),
            626: (0.02195923327260685, -1.9798280752131734, 0),
            627: (0.022023787813700922, -1.9856682262087308, 0),
            628: (0.022088342354794996, -1.9915083772042883, 0),
            629: (0.02215289894804093, -1.9973487138548986, 0),
            630: (0.022217453489135005, -2.0031888648504563, 0),
            631: (0.02228200803022908, -2.009029015846014, 0),
            632: (0.022346562571323152, -2.0148691668415712, 0),
            633: (0.022411119164569088, -2.0207095034921814, 0),
            634: (0.02247567370566316, -2.026549654487739, 0),
            635: (0.022540228246757235, -2.0323898054832963, 0),
            636: (0.02260478696141488, -2.0382300492718026, 0),
            637: (0.022669345676072525, -2.044070293060309, 0),
            638: (0.0227339002171666, -2.0499104440558664, 0),
            639: (0.022798454758260672, -2.055750595051424, 0),
            640: (0.022861736965200875, -2.061475639914253, 0),
            641: (0.02292253606838917, -2.066976042163208, 0),
            642: (0.022980952623266746, -2.072260898895876, 0),
            643: (0.023037076924515495, -2.07733837893458, 0),
            644: (0.023091001318969163, -2.0822168367566944, 0),
            645: (0.023142811997005915, -2.0869040698744374, 0),
            646: (0.023192591044700193, -2.0914075044899203, 0),
            647: (0.023240416443822725, -2.0957341954951487, 0),
            648: (0.023286368228296085, -2.0998913834371815, 0),
            649: (0.023330518223435417, -2.1038855662428664, 0),
            650: (0.023372936202403993, -2.107723056183998, 0),
            651: (0.023413691938365094, -2.111410165532371, 0),
            652: (0.02345284904802641, -2.1149526495946223, 0),
            653: (0.02349047114809564, -2.118356263677388, 0),
            654: (0.02352661775097675, -2.1216263917771987, 0),
            655: (0.023561349036282514, -2.12476832504445, 0),
            656: (0.023594717626315924, -2.127786983357387, 0),
            657: (0.02362677839484162, -2.1306874722470965, 0),
            658: (0.02365757914212461, -2.133473968934394, 0),
            659: (0.02368717569313582, -2.1361513932623266, 0),
            660: (0.02371561066956233, -2.1387237368309973, 0),
            661: (0.023742930967288925, -2.1411953625487663, 0),
            662: (0.02376917798959217, -2.143569890673927, 0),
            663: (0.023794396883813015, -2.1458514056176408, 0),
            664: (0.023818626640836817, -2.1480434348259108, 0),
            665: (0.023841906251548937, -2.1501495057447397, 0),
            666: (0.023864272654682876, -2.152172960165078, 0),
            667: (0.023885762788972132, -2.154117139877876, 0),
            668: (0.023906411540998346, -2.1559852010190306, 0),
            669: (0.02392624764088757, -2.157779742759281, 0),
            670: (0.023945308027373303, -2.1595041068895773, 0),
            671: (0.023963621430581606, -2.161160892580659, 0),
            672: (0.02398121452848667, -2.1627525133482117, 0),
            673: (0.023998120155518266, -2.1642819396730806, 0),
            674: (0.024014360885346874, -2.165751213760846, 0),
            675: (0.024029967235044514, -2.1671630276014135, 0),
            676: (0.02404496171858579, -2.168519423400922, 0),
            677: (0.024059367500912386, -2.1698226290362514, 0),
            678: (0.024073207213063528, -2.171074686712255, 0),
            679: (0.024086505157123343, -2.1722777314543222, 0),
            680: (0.024099281854610445, -2.1734336198129816, 0),
            681: (0.024111557827043443, -2.1745442083387605, 0),
            682: (0.024123351543789084, -2.175611167927134, 0),
            683: (0.024134683052745035, -2.1766362622950335, 0),
            684: (0.024145571275287058, -2.1776212551717684, 0),
            685: (0.024156031093322997, -2.17856753897583, 0),
            686: (0.02416608048098672, -2.1794766917693336, 0),
            687: (0.024175737907644972, -2.1803503844477548, 0),
            688: (0.024185015112432685, -2.181189638108914, 0),
            689: (0.024193929068631208, -2.181996030825924, 0),
            690: (0.024202492698347504, -2.182770769361209, 0),
            691: (0.024210721827310443, -2.1835152461228895, 0),
            692: (0.024218626716279334, -2.1842303893862294, 0),
            693: (0.024226223782469063, -2.1849176843916513, 0),
            694: (0.024233521234487073, -2.185577873759366, 0),
            695: (0.02424053343739639, -2.186212257074743, 0),
            696: (0.0242472699543117, -2.186821669781911, 0),
            697: (0.024253743782981726, -2.1874073186424634, 0),
            698: (0.024259961803120806, -2.1879698534524117, 0),
            699: (0.02426593766934028, -2.188510480966131, 0),
            700: (0.024271677538095726, -2.1890297581487794, 0),
            701: (0.024277193722298317, -2.189528798930674, 0),
            702: (0.024282492378403634, -2.190008160276973, 0),
            703: (0.02428758376717098, -2.1904687704629406, 0),
            704: (0.0242924760972078, -2.1909113721087876, 0),
            705: (0.02429717552496968, -2.1913365221796726, 0),
            706: (0.02430169231121592, -2.1917451489508593, 0),
            707: (0.02430603056025025, -2.1921376237324535, 0),
            708: (0.02431019848068011, -2.1925146891446663, 0),
            709: (0.02431420428111294, -2.192877087807709, 0),
            710: (0.024318052065852473, -2.1932251910316864, 0),
            711: (0.024321750043506143, -2.1935597414368107, 0),
            712: (0.02432530231837768, -2.193881110333187, 0),
            713: (0.024328715046922657, -2.1941898546859737, 0),
            714: (0.02433199438559667, -2.194486531460329, 0),
            715: (0.02433514443870343, -2.194771511966359, 0),
            716: (0.024338171362698526, -2.1950453531692213, 0),
            717: (0.024341080429789906, -2.19530851920499, 0),
            718: (0.02434387457077397, -2.195561288557864, 0),
            719: (0.024346558785408267, -2.195804125366911, 0),
            720: (0.024349138340297647, -2.196037493768266, 0),
            721: (0.024351617339745835, -2.196261765072034, 0),
            722: (0.02435399783590469, -2.1964771249332684, 0),
            723: (0.0243562859852298, -2.196684130317127, 0),
            724: (0.02435848383987302, -2.1968829668786634, 0),
            725: (0.024360595504138074, -2.1970740059279823, 0),
            726: (0.024362625082328684, -2.1972576187751898, 0),
            727: (0.024364574626596712, -2.1974339910753384, 0),
            728: (0.02436644824124588, -2.197603494138534, 0),
            729: (0.02436824797842805, -2.1977663136198293, 0),
            730: (0.024369975890295083, -2.197922635174277, 0),
            731: (0.02437163813330256, -2.198073015767035, 0),
            732: (0.024373234707450484, -2.198217455398104, 0),
            733: (0.024374767664890714, -2.198356139722537, 0),
            734: (0.02437624110992697, -2.198489440050439, 0),
            735: (0.024377657094711118, -2.198617542036863, 0),
            736: (0.024379017671395015, -2.1987406313368614, 0),
            737: (0.024380322839978662, -2.1988587079504347, 0),
            738: (0.024381578756917644, -2.198972328842741, 0),
            739: (0.02438278542221196, -2.1990814940137806, 0),
            740: (0.024383944888013473, -2.199186389118606, 0),
            741: (0.024385058234678077, -2.199287106984147, 0),
            742: (0.024386128484052437, -2.1993839260936023, 0),
            743: (0.02438715661213484, -2.199476939275049, 0),
            744: (0.02438814369718002, -2.1995662393554403, 0),
            745: (0.024389092863691317, -2.1996521048168463, 0),
            746: (0.02439000508966812, -2.199734628487322, 0),
            747: (0.024390881358512802, -2.1998139031948627, 0),
            748: (0.024391722740775848, -2.199890021766506, 0),
            749: (0.024392531288609114, -2.1999631698573046, 0),
            750: (0.024393307002012605, -2.2000333474672584, 0),
            751: (0.02439405398529004, -2.200100925906473, 0),
            752: (0.024394772238441418, -2.200165905174949, 0),
            753: (0.02439545970931488, -2.200228099617633, 0),
            754: (0.024396122554366007, -2.2002880661996835, 0),
            755: (0.02439675872144294, -2.2003456192660478, 0),
            756: (0.024397370262697542, -2.2004009444717787, 0),
            757: (0.02439795717812981, -2.2004540418168763, 0),
            758: (0.02439852151989161, -2.200505096956393, 0),
            759: (0.024399063287982935, -2.2005541098903287, 0),
            760: (0.024399584534555648, -2.200601266273737, 0),
            761: (0.024400084257897272, -2.200646473278823, 0),
            762: (0.02440056551097165, -2.200690009388444, 0),
            763: (0.024401027245140393, -2.2007317817753216, 0),
            764: (0.024401470509942385, -2.200771883266724, 0),
            765: (0.02440189735752949, -2.200810499517704, 0),
            766: (0.024402306781786797, -2.2008475377005157, 0),
            767: (0.02440269978802877, -2.200883090642914, 0),
            768: (0.02440307943612307, -2.20091743682768, 0),
            769: (0.024403442667002482, -2.2009502977720232, 0),
            770: (0.024403791532818866, -2.200981859130997, 0),
            771: (0.024404126033572223, -2.2010121209046014, 0),
            772: (0.024404448221414413, -2.2010412687478893, 0),
            773: (0.024404758096345437, -2.2010693026608603, 0),
            774: (0.024405055658365295, -2.2010962226435145, 0),
            775: (0.024405340907473986, -2.201122028695852, 0),
            776: (0.024405615895823372, -2.2011469064729257, 0),
            777: (0.02440588062341345, -2.2011708559747354, 0),
            778: (0.024406133038092363, -2.2011936915462282, 0),
            779: (0.02440637724416383, -2.20121578449751, 0),
            780: (0.024406611189475996, -2.201236949173528, 0),
            781: (0.024406835911060833, -2.201257278401688, 0),
            782: (0.024407052423638005, -2.2012768650096413, 0),
            783: (0.024407259690975975, -2.201295616169973, 0),
            784: (0.0244074587497065, -2.2013136247100933, 0),
            785: (0.024407650635260677, -2.201330983457426, 0),
            786: (0.024407834311807187, -2.2013475995845524, 0),
            787: (0.02440801079686724, -2.201363565919092, 0),
            788: (0.02440818112547171, -2.2013789752884736, 0),
            789: (0.024408345297620596, -2.2013938276926965, 0),
        }
        uniform token[] xformOpOrder = ["xformOp:translate", "xformOp:orient"]
    }
}
